<svg width="124" height="124" viewBox="0 0 124 124" fill="none" xmlns="http://www.w3.org/2000/svg">
<path d="M61.9644 108.145C87.3495 108.145 107.928 87.5663 107.928 62.1812C107.928 36.796 87.3495 16.2173 61.9644 16.2173C36.5792 16.2173 16.0005 36.796 16.0005 62.1812C16.0005 87.5663 36.5792 108.145 61.9644 108.145Z" stroke="white" stroke-width="3.67711" stroke-linecap="round" stroke-linejoin="round"/>
<path d="M29.4067 29.7207C38.0008 38.3372 42.8226 50.013 42.8129 62.1827C42.8226 74.3524 38.0008 86.0282 29.4067 94.6447" stroke="white" stroke-width="3.67711" stroke-linecap="round" stroke-linejoin="round"/>
<path d="M94.5231 29.7207C85.9389 38.3436 81.1196 50.0155 81.1196 62.1827C81.1196 74.3499 85.9389 86.0218 94.5231 94.6447" stroke="white" stroke-width="3.67711" stroke-linecap="round" stroke-linejoin="round"/>
<path d="M16.0005 62.1812H107.928" stroke="white" stroke-width="3.67711" stroke-linecap="round" stroke-linejoin="round"/>
<path d="M61.9644 16.2173V108.145" stroke="white" stroke-width="3.67711" stroke-linecap="round" stroke-linejoin="round"/>
</svg>
