<svg width="124" height="124" viewBox="0 0 124 124" fill="none" xmlns="http://www.w3.org/2000/svg">
<path d="M100.208 100.388H23.6016C21.5698 100.388 19.6213 99.5806 18.1847 98.144C16.748 96.7073 15.9409 94.7588 15.9409 92.7271V39.1025C15.9409 37.0708 16.748 35.1223 18.1847 33.6857C19.6213 32.249 21.5698 31.4419 23.6016 31.4419H38.9229L46.5835 19.9509H77.2261L84.8868 31.4419H100.208C102.24 31.4419 104.188 32.249 105.625 33.6857C107.062 35.1223 107.869 37.0708 107.869 39.1025V92.7271C107.869 94.7588 107.062 96.7073 105.625 98.144C104.188 99.5806 102.24 100.388 100.208 100.388Z" stroke="white" stroke-width="3.67711" stroke-linecap="round" stroke-linejoin="round"/>
<path d="M61.9049 81.2361C71.4244 81.2361 79.1414 73.5191 79.1414 63.9996C79.1414 54.4802 71.4244 46.7632 61.9049 46.7632C52.3855 46.7632 44.6685 54.4802 44.6685 63.9996C44.6685 73.5191 52.3855 81.2361 61.9049 81.2361Z" stroke="white" stroke-width="3.67711" stroke-linecap="round" stroke-linejoin="round"/>
</svg>
