<svg width="124" height="124" viewBox="0 0 124 124" fill="none" xmlns="http://www.w3.org/2000/svg">
<path d="M86.8617 96.5574C94.2657 96.5574 100.268 90.5553 100.268 83.1513C100.268 75.7472 94.2657 69.7451 86.8617 69.7451C79.4577 69.7451 73.4556 75.7472 73.4556 83.1513C73.4556 90.5553 79.4577 96.5574 86.8617 96.5574Z" stroke="white" stroke-width="3.67711" stroke-linecap="round" stroke-linejoin="round"/>
<path d="M25.5765 111.879C32.9805 111.879 38.9827 105.877 38.9827 98.4725C38.9827 91.0685 32.9805 85.0664 25.5765 85.0664C18.1725 85.0664 12.1704 91.0685 12.1704 98.4725C12.1704 105.877 18.1725 111.879 25.5765 111.879Z" stroke="white" stroke-width="3.67711" stroke-linecap="round" stroke-linejoin="round"/>
<path d="M100.268 39.1025L38.9824 54.4238" stroke="white" stroke-width="3.67711" stroke-linecap="round" stroke-linejoin="round"/>
<path d="M38.9824 98.4726V31.4419L100.268 16.1206V83.1513" stroke="white" stroke-width="3.67711" stroke-linecap="round" stroke-linejoin="round"/>
</svg>
