<svg width="124" height="124" viewBox="0 0 124 124" fill="none" xmlns="http://www.w3.org/2000/svg">
<path d="M10.375 104.218H44.8479C49.7721 104.218 54.5857 102.758 58.68 100.022C62.7743 97.2864 65.9654 93.398 67.8498 88.8487C69.7342 84.2993 70.2273 79.2933 69.2666 74.4638C68.306 69.6342 65.9348 65.198 62.4528 61.716C58.9709 58.2341 54.5347 55.8629 49.7051 54.9022C44.8755 53.9416 39.8696 54.4346 35.3202 56.319C30.7709 58.2034 26.8825 61.3945 24.1467 65.4889C21.411 69.5832 19.9508 74.3968 19.9508 79.3209C19.9508 96.5574 10.375 104.218 10.375 104.218Z" stroke="white" stroke-width="3.67711" stroke-linecap="round" stroke-linejoin="round"/>
<path d="M54.6147 56.4348C63.8075 44.0341 87.1725 15.6418 108.527 15.6418C108.527 36.9959 80.1343 60.3609 67.7336 69.5537" stroke="white" stroke-width="3.67711" stroke-linecap="round" stroke-linejoin="round"/>
<path d="M64.4785 44.1782C70.966 47.8395 76.33 53.2035 79.9913 59.691" stroke="white" stroke-width="3.67711" stroke-linecap="round" stroke-linejoin="round"/>
</svg>
