<svg width="124" height="124" viewBox="0 0 124 124" fill="none" xmlns="http://www.w3.org/2000/svg">
<path d="M18.3106 83.6299L29.8973 17.9877C29.9783 17.4923 30.1571 17.018 30.4233 16.5923C30.6894 16.1667 31.0377 15.7983 31.4477 15.5087C31.8577 15.219 32.3212 15.0138 32.8113 14.9052C33.3014 14.7965 33.8082 14.7864 34.3022 14.8756L60.7315 19.5199C61.73 19.7066 62.6155 20.2776 63.1974 21.1103C63.7794 21.9429 64.0114 22.9707 63.8436 23.9726L52.209 89.9978C51.4122 94.4437 48.9068 98.401 45.2291 101.023C41.5513 103.645 36.9933 104.723 32.5307 104.026C23.0028 102.494 16.6348 93.1578 18.3106 83.6299Z" stroke="white" stroke-width="3.67711" stroke-linecap="round" stroke-linejoin="round"/>
<path d="M57.379 60.5525L92.2828 47.8646C92.7573 47.6894 93.2619 47.6099 93.7673 47.6307C94.2727 47.6515 94.769 47.7723 95.2275 47.9859C95.686 48.1996 96.0977 48.502 96.4387 48.8756C96.7797 49.2492 97.0433 49.6867 97.2143 50.1628L106.407 75.3472C106.746 76.2997 106.695 77.3477 106.264 78.2625C105.834 79.1774 105.059 79.8849 104.109 80.2308L41.1001 103.165" stroke="white" stroke-width="3.67711" stroke-linecap="round" stroke-linejoin="round"/>
<path d="M106.073 78.6028V100.388C106.073 101.404 105.67 102.378 104.952 103.096C104.233 103.815 103.259 104.218 102.243 104.218H35.2124" stroke="white" stroke-width="3.67711" stroke-linecap="round" stroke-linejoin="round"/>
<path d="M35.2123 92.7271C38.3854 92.7271 40.9578 90.1547 40.9578 86.9816C40.9578 83.8084 38.3854 81.2361 35.2123 81.2361C32.0391 81.2361 29.4668 83.8084 29.4668 86.9816C29.4668 90.1547 32.0391 92.7271 35.2123 92.7271Z" fill="white"/>
</svg>
