<svg width="124" height="124" viewBox="0 0 124 124" fill="none" xmlns="http://www.w3.org/2000/svg">
<path d="M12.2903 29.6235H73.5755C77.6389 29.6235 81.536 31.2377 84.4093 34.111C87.2826 36.9843 88.8968 40.8814 88.8968 44.9448V90.9087C88.8968 91.9246 88.4932 92.8989 87.7749 93.6172C87.0566 94.3355 86.0823 94.7391 85.0664 94.7391H23.7813C19.7178 94.7391 15.8208 93.1248 12.9475 90.2515C10.0742 87.3782 8.45996 83.4812 8.45996 79.4178V33.4539C8.45996 32.438 8.86351 31.4637 9.58184 30.7454C10.3002 30.0271 11.2744 29.6235 12.2903 29.6235V29.6235Z" stroke="white" stroke-width="3.67711" stroke-linecap="round" stroke-linejoin="round"/>
<path d="M88.897 54.5205L115.709 39.1992V85.1631L88.897 69.8418" stroke="white" stroke-width="3.67711" stroke-linecap="round" stroke-linejoin="round"/>
</svg>
